<svg xmlns="http://www.w3.org/2000/svg" width="68" height="66" viewBox="0 0 68 66" fill="none"><g clip-path="url(#clip0_48_39)" filter="url(#filter0_d_48_39)"><path d="M62.167 23.519C59.9109 19.8246 57.0651 16.5247 53.7426 13.7501L60.7399 6.75277C61.6988 5.75998 61.6712 4.17795 60.6784 3.21912C59.71 2.28373 58.1746 2.28373 57.2062 3.21912L49.5965 10.8388C44.8792 8.03691 39.4863 6.57647 33.9998 6.61536C18.528 6.61536 9.71129 17.2065 5.83277 23.5191C3.38891 27.4719 3.38891 32.4665 5.83277 36.4194C8.08885 40.1138 10.9346 43.4137 14.2572 46.1883L7.25982 53.1856C6.26702 54.1444 6.2395 55.7266 7.19832 56.7193C8.15714 57.7121 9.73929 57.7396 10.732 56.7808C10.7528 56.7606 10.7733 56.7401 10.7935 56.7193L18.4206 49.0921C23.132 51.8936 28.5185 53.3564 33.9998 53.323C49.4716 53.323 58.2883 42.7319 62.1669 36.4193C64.6108 32.4665 64.6108 27.4719 62.167 23.519ZM19.0055 29.9692C18.9913 21.7018 25.6818 14.9882 33.9492 14.9741C37.0773 14.9687 40.1286 15.9434 42.6742 17.7613L39.0456 21.3899C37.5222 20.4713 35.7788 19.9816 33.9999 19.9729C28.4792 19.9729 24.0037 24.4484 24.0037 29.9692C24.0124 31.748 24.502 33.4915 25.4207 35.0148L21.792 38.6435C19.98 36.114 19.0056 33.0807 19.0055 29.9692ZM33.9999 44.9636C30.8885 44.9635 27.8551 43.9891 25.3257 42.1771L28.9543 38.5485C30.4776 39.4671 32.2211 39.9568 33.9999 39.9654C39.5207 39.9654 43.9962 35.49 43.9962 29.9692C43.9875 28.1904 43.4979 26.4469 42.5792 24.9236L46.2079 21.2949C51.0123 28.023 49.453 37.372 42.7249 42.1764C40.1793 43.9943 37.128 44.969 33.9999 44.9636Z" fill="black"></path></g><defs><filter id="filter0_d_48_39" x="0" y="0" width="68" height="68" filterUnits="userSpaceOnUse" color-interpolation-filters="sRGB"><feGaussianBlur stdDeviation="2"></feGaussianBlur></filter><clipPath id="clip0_48_39"><rect width="60" height="60" fill="white" transform="translate(4)"></rect></clipPath></defs></svg>